# xmcd CD database file
#
# Track frame offsets:
#	150
#	22360
#	45157
#	66872
#	87677
#	108432
#	127555
#	148630
#	164890
#	186460
#	204375
#	226645
#	246272
#	270045
#	289360
#	308685
#
# Disc length: 4386 seconds
#
# Revision: 0
# Processed by: cddbd v1.5.1PL0 Copyright (c) Steve Scherf et al.
# Submitted via: CDex 1.51
#
DISCID=e3112010
DTITLE=天童よしみ - 天童よしみ2004年全曲集
DYEAR=2003
DGENRE=Country
TTITLE0=夢うぐいす
TTITLE1=女の花が咲く
TTITLE2=あんたの花道
TTITLE3=春が来た
TTITLE4=道頓堀人情
TTITLE5=郷愁〜われ立ちて〜
TTITLE6=旅まくら
TTITLE7=あばれ玄海
TTITLE8=珍島物語
TTITLE9=夜明け
TTITLE10=人生しみじみ
TTITLE11=酒きずな
TTITLE12=満天星〜どうだん〜
TTITLE13=淋代晩歌
TTITLE14=人間劇場
TTITLE15=あい・らぶ・ゆうを聞かせて
EXTD=YEAR: 2003
EXTT0=
EXTT1=
EXTT2=
EXTT3=
EXTT4=
EXTT5=
EXTT6=
EXTT7=
EXTT8=
EXTT9=
EXTT10=
EXTT11=
EXTT12=
EXTT13=
EXTT14=
EXTT15=
PLAYORDER=
